<svg id="leaseready-logo" width="512" height="514" viewBox="0 0 512 514" fill="none" xmlns="http://www.w3.org/2000/svg">
<path d="M141.301 0.238372C180.293 -0.255145 220.347 0.173485 259.425 0.156341L304.576 0.148978C326.233 0.15204 344.002 -0.623757 365.408 4.72717C391.352 11.2776 415.109 24.5548 434.287 43.2203C462.851 70.7361 479.113 108.6 479.413 148.258C480.124 208.243 444.108 262.572 388.584 285.283C381.169 288.381 358.967 293.733 356.377 296.365C357.479 300.058 380.244 330.71 384.31 336.361L452.049 430.558C471.202 457.151 491.666 487.227 511.204 513.072L432.003 513.134C389.368 451.56 342.765 390.715 299.5 329.271C286.666 312.004 274.132 293.641 261.286 276.3C256.877 270.349 240.015 247.976 237.78 242.374C239.255 238.786 242.127 238.847 245.623 238.8C274.493 238.407 303.621 239.253 332.46 238.694C353.591 238.285 375.236 228.655 390.415 214.039C407.792 197.409 417.662 174.43 417.76 150.379C417.944 126.321 408.441 103.201 391.395 86.228C380.771 75.4606 367.533 67.6446 352.972 63.5495C334.824 58.5592 304.686 60.0587 284.945 60.0581L207.169 60.0807L207.153 396.214L141.133 396.202L141.301 0.238372Z" fill="currentColor"/>
<path d="M0.0869649 0.226562L66.0028 0.227198L66.0346 451.949C95.0579 452.341 124.884 452.035 153.978 452.035L318.002 452.005L346.419 491.18C350.589 496.936 358.444 507.222 361.671 512.996C322.716 514.08 278.967 513.119 239.761 513.113L0 513.143L0.0869649 0.226562Z" fill="currentColor"/>
</svg>
